<svg id="Layer_1" data-name="Layer 1" xmlns="http://www.w3.org/2000/svg" viewBox="0 0 822.05 822.05"><defs><style>.cls-1{fill:#4dbee7;}</style></defs><title>arrow</title><path class="cls-1" d="M221.94,644.25q9.41-50.06,18.8-100.12a189.26,189.26,0,0,1,11.08-37.73l-3.78,9a178,178,0,0,1,22.34-38.53l-5.86,7.59a179.69,179.69,0,0,1,32.35-32.33L289.28,458a182.77,182.77,0,0,1,39.07-22.75l-9,3.78a181,181,0,0,1,45.86-12.49l-10,1.34a175.56,175.56,0,0,1,45.63.11l-10-1.34a174.28,174.28,0,0,1,43,11.8l-9-3.78a189.39,189.39,0,0,1,31.76,17.48,164.14,164.14,0,0,0,38.14,18.65c26.53,9.25,55.4,9.75,82.75,4.35,55.26-10.92,99.83-53.37,117.62-106,4.84-14.34,7.8-29.44,11.49-44.11a39.21,39.21,0,0,0-3.78-28.89c-4.55-7.78-13.47-15.2-22.41-17.24-19.45-4.43-41,5.84-46.13,26.19-4.45,17.71-7.83,36.28-14.95,53.15l3.79-9A124.8,124.8,0,0,1,608.12,375l5.87-7.59a124.57,124.57,0,0,1-22.22,22.15l7.59-5.87a126.63,126.63,0,0,1-26.77,15.54l9-3.78A127.31,127.31,0,0,1,550.6,404l10-1.34a124.77,124.77,0,0,1-32.42.05l10,1.34a123.74,123.74,0,0,1-31-8.53l9,3.78c-18.33-7.95-33.76-20.92-52.15-28.91-11.06-4.8-22.15-9.28-33.84-12.29a234.1,234.1,0,0,0-36.46-6c-41.66-3.9-85.06,6.8-121.34,27.27s-67.41,52.53-85.43,90.08c-8.29,17.26-14.79,35.18-18.34,54q-2.56,13.59-5.11,27.18l-13.83,73.67c-1.89,10.07-1.54,19.8,3.78,28.9,4.56,7.78,13.48,15.19,22.42,17.23,9.6,2.19,20.37,1.71,28.89-3.78,7.82-5,15.45-12.92,17.23-22.41Z"/></svg>