<svg id="Layer_1" data-name="Layer 1" xmlns="http://www.w3.org/2000/svg" viewBox="0 0 822.05 822.05"><defs><style>.cls-1{fill:#4cbfe8;stroke:#4cbfe8;stroke-miterlimit:10;stroke-width:20px;}</style></defs><title>arrow</title><path class="cls-1" d="M648.18,556.72q-4.73,7.86-9.9,15.44-2.55,3.75-5.24,7.42c-1,1.31-1.94,2.61-2.91,3.91-2.7,3.62,4.63-5.89.88-1.14a290.81,290.81,0,0,1-24.21,27q-6.25,6.18-12.88,12-3.28,2.88-6.67,5.66c-1,.85-2.08,1.7-3.13,2.54l-2.1,1.67c-2.73,2.19,5.69-4.33,2.89-2.23a317.4,317.4,0,0,1-29.29,19.69,300.15,300.15,0,0,1-35.46,17.76l7.16-3a301.53,301.53,0,0,1-74.78,20.39l8-1.07a300.26,300.26,0,0,1-79.29,0l8,1.07a298.67,298.67,0,0,1-74.38-20.28l7.17,3a304.68,304.68,0,0,1-40.46-20.8q-9.57-5.88-18.7-12.48c-1.5-1.09-3-2.19-4.48-3.31-5.25-4,5.72,4.52.58.46q-4.59-3.63-9-7.45a292.51,292.51,0,0,1-30.83-30.65q-3.51-4.08-6.9-8.26c-.87-1.09-4.39-5.6-1-1.18,3.57,4.64-.88-1.19-1.7-2.3q-6.51-8.85-12.39-18.17a300.78,300.78,0,0,1-22.27-42.86l3,7.17A302.27,302.27,0,0,1,157.5,452l1.07,8a300.19,300.19,0,0,1,0-79.28l-1.07,8a299,299,0,0,1,20.29-74.33l-3,7.16a303.46,303.46,0,0,1,20.8-40.46q5.91-9.58,12.48-18.7c1.09-1.5,2.19-3,3.31-4.48,4-5.25-4.52,5.72-.46.58q3.63-4.59,7.45-9.05A291.47,291.47,0,0,1,249,218.6q4.07-3.54,8.25-6.9c1.09-.87,5.61-4.39,1.18-1-4.63,3.58,1.19-.88,2.3-1.7q8.85-6.52,18.17-12.39a299.42,299.42,0,0,1,42.84-22.25l-7.16,3A301.88,301.88,0,0,1,389.33,157l-8,1.07a299.84,299.84,0,0,1,79.29,0l-8-1.07A297.73,297.73,0,0,1,527,177.22l-7.17-3A299.91,299.91,0,0,1,556,192.46q10.2,6,19.92,12.88c2.31,1.63,7.44,4,8.89,6.51a37.11,37.11,0,0,1-3-2.29l2.45,1.94c1.62,1.3,3.23,2.61,4.83,3.95a290.3,290.3,0,0,1,32,31.12q3.52,4,6.9,8.12c1.12,1.37,2.22,2.75,3.33,4.14,3,3.68-1.89-2.33-1.9-2.48,0,.61,1.44,1.9,1.82,2.41q6.78,9.06,12.84,18.62A298.35,298.35,0,0,1,667,321.09l-3-7.16a304.92,304.92,0,0,1,13.78,40.91c3.94,15.19,21.63,25.89,36.9,21,15.65-5.06,25.18-20.62,21-36.9-15.86-61-49.76-117.82-96.91-159.81-45-40.1-101.12-68.58-160.77-78.6-55.59-9.34-113.25-5.45-166.38,14S209.74,166.4,173.32,210.14C136,254.9,109.52,309,100.48,366.76c-8.7,55.7-4.36,113.22,15.67,166.18,20.18,53.34,53.19,101.79,97.7,137.8,45.14,36.52,99,62.26,156.76,70.61,56,8.1,113.63,3.24,166.55-17.59s100.81-54.16,136.27-99A362.67,362.67,0,0,0,700,587c8.09-13.46,3.43-33.54-10.77-41-14.53-7.68-32.4-3.61-41,10.76Z"/><path class="cls-1" d="M714.59,674l6.88-95.75,1-13.7c.67-9.4-3.86-18.17-10.87-24-7.74-6.53-16.05-7.65-25.91-6.42L582.06,547.34l-15,1.92c-7,.89-14.8,7.32-18.47,13-4,6.27-6,15.68-3.94,23s6.27,14.53,13.06,18.47c7.36,4.31,14.55,5,23,3.94l103.62-13.23,15-1.9-36.8-30.45-6.88,95.75-1,13.72c-1.14,15.67,12.89,31.26,28.76,31.19C700.09,702.71,713.38,690.8,714.59,674Z"/></svg>