<?xml version="1.0" encoding="utf-8"?>
<!-- Generator: Adobe Illustrator 23.0.1, SVG Export Plug-In . SVG Version: 6.00 Build 0)  -->
<svg version="1.1" id="Layer_1" xmlns="http://www.w3.org/2000/svg" xmlns:xlink="http://www.w3.org/1999/xlink" x="0px" y="0px"
	 viewBox="0 0 592 98" style="enable-background:new 0 0 592 98;" xml:space="preserve">
<style type="text/css">
	.st0{fill:#231F20;}
</style>
<title>Title</title>
<path class="st0" d="M27.8,24.3H7.4v-12h55.5v12H42.6v51.7H27.8V24.3z"/>
<path class="st0" d="M119.9,47.9v28h-14.2V50.1c0-7.9-3.6-11.6-9.9-11.6C89,38.6,84,42.7,84,51.7V76H69.9V8.4H84v23.7
	c3.8-3.8,9.3-5.8,15.6-5.8C111.2,26.3,119.9,33,119.9,47.9z"/>
<path class="st0" d="M180.9,55.5h-37c1.4,6.1,6.5,9.8,14,9.8c4.6,0.2,9-1.5,12.3-4.7l7.5,8.2c-4.5,5.2-11.4,7.9-20.2,7.9
	c-16.9,0-27.9-10.6-27.9-25.2s11.2-25.2,26.1-25.2c14.4,0,25.5,9.6,25.5,25.4C181.2,52.7,181,54.3,180.9,55.5z M143.7,47.2h24.1
	c-0.7-6-6-10.4-12-10.2C149.4,37,144.7,40.9,143.7,47.2z"/>
<path class="st0" d="M216.9,47.9V12.2h14.7v35.1c0,12.1,5.3,17.1,14.2,17.1s14.2-5,14.2-17.1V12.2h14.6v35.7
	c0,18.8-10.7,29.1-28.8,29.1S216.9,66.7,216.9,47.9z"/>
<path class="st0" d="M319.7,73.6c-2.9,2.1-7.2,3.1-11.5,3.1c-11.6,0-18.3-5.9-18.3-17.6V39h-7.5V28.1h7.5v-12H304v12h12.2V39H304
	v19.9c0,4.2,2.3,6.5,6.1,6.5c2.1,0,4.1-0.6,5.7-1.8L319.7,73.6z"/>
<path class="st0" d="M322.5,51.5c0-14.7,11.4-25.2,26.9-25.2s26.8,10.5,26.8,25.2S365,76.7,349.4,76.7S322.5,66.2,322.5,51.5z
	 M361.9,51.5c0-8.5-5.4-13.6-12.5-13.6s-12.5,5.1-12.5,13.6S342.3,65,349.4,65S361.9,59.9,361.9,51.5z"/>
<path class="st0" d="M439,51.5c0,15.4-10.6,25.2-24.4,25.2c-6.1,0-11.1-1.9-14.7-5.9v22.8h-14.2V27h13.6v5.6
	c3.5-4.3,8.8-6.4,15.4-6.4C428.4,26.3,439,36.1,439,51.5z M424.7,51.5c0-8.5-5.4-13.6-12.5-13.6s-12.5,5.1-12.5,13.6
	S405.1,65,412.2,65S424.7,59.9,424.7,51.5z"/>
<path class="st0" d="M446.8,12.2c0-4.5,3.5-7.9,8.8-7.9s8.8,3.3,8.8,7.6c0,4.7-3.5,8.2-8.8,8.2S446.8,16.7,446.8,12.2z M448.5,27
	h14.2v49h-14.2V27z"/>
<path class="st0" d="M519.2,48v27.9h-13.3v-6.1c-2.6,4.5-7.7,6.8-14.9,6.8c-11.5,0-18.3-6.4-18.3-14.8c0-8.6,6.1-14.6,21-14.6H505
	c0-6.1-3.6-9.6-11.3-9.6c-5.1,0-10,1.6-14.1,4.5l-5.1-9.9c5.4-3.8,13.3-5.9,21.1-5.9C510.6,26.3,519.2,33.2,519.2,48z M505,60.5v-5
	h-9.7c-6.6,0-8.7,2.5-8.7,5.7c0,3.5,3,5.9,8,5.9C499.3,67.1,503.4,64.9,505,60.5z"/>
<path class="st0" d="M582.1,47.9v28h-14.2V50.1c0-7.9-3.6-11.6-9.9-11.6c-6.8,0-11.7,4.2-11.7,13.2V76H532V27h13.6v5.7
	c3.8-4.2,9.5-6.5,16.2-6.5C573.3,26.3,582.1,33,582.1,47.9z"/>
</svg>
