<?xml version="1.0" encoding="utf-8"?>
<!-- Generator: Adobe Illustrator 23.0.1, SVG Export Plug-In . SVG Version: 6.00 Build 0)  -->
<svg version="1.1" id="Layer_1" xmlns="http://www.w3.org/2000/svg" xmlns:xlink="http://www.w3.org/1999/xlink" x="0px" y="0px"
	 viewBox="0 0 187.5 187.5" style="enable-background:new 0 0 187.5 187.5;" xml:space="preserve">
<style type="text/css">
	.st0{fill:#FFFFFF;}
</style>
<g>
	<path class="st0" d="M146.8,158.8L28.7,40.7c-3.3-3.3-3.3-8.7,0-12l0,0c3.3-3.3,8.7-3.3,12,0l118.1,118.1c3.3,3.3,3.3,8.7,0,12l0,0
		C155.5,162.1,150.1,162.1,146.8,158.8z"/>
	<path class="st0" d="M158.9,40.7L40.7,158.8c-3.3,3.3-8.7,3.3-12,0l0,0c-3.3-3.3-3.3-8.7,0-12L146.8,28.7c3.3-3.3,8.7-3.3,12,0l0,0
		C162.2,32,162.2,37.4,158.9,40.7z"/>
</g>
</svg>
