<?xml version="1.0" encoding="utf-8"?>
<!-- Generator: Adobe Illustrator 23.0.0, SVG Export Plug-In . SVG Version: 6.00 Build 0)  -->
<svg version="1.1" id="Layer_1" xmlns="http://www.w3.org/2000/svg" xmlns:xlink="http://www.w3.org/1999/xlink" x="0px" y="0px"
	 viewBox="0 0 822 822" style="enable-background:new 0 0 822 822;" xml:space="preserve">
<style type="text/css">
	.st0{fill:#FFFFFF;}
</style>
<title>arrow</title>
<path class="st0" d="M628.6,289.5c-13.9-12.8-35.7-13.9-49.5,0c-22.2,22.4-44.4,44.8-66.7,67.2c-34.9,35.2-69.9,70.5-104.8,105.6
	c-12.8-13.8-25.6-27.6-38.4-41.5c-33-35.7-66.1-71.4-99.1-107.1c-7.5-8.1-15-16.2-22.5-24.3c-12.5-13.5-37-13.6-49.5,0
	c-13.2,14.4-13.3,35.1,0,49.5c20.8,22.4,41.5,44.8,62.3,67.3c33,35.7,66.1,71.4,99.1,107.1c7.5,8.1,15,16.2,22.5,24.3
	c12.8,13.8,36.6,13,49.5,0c22.2-22.4,44.4-44.8,66.7-67.2c35.4-35.7,70.8-71.4,106.2-107c8.1-8.1,16.1-16.3,24.2-24.4
	C641.5,326,642.6,302.3,628.6,289.5z"/>
</svg>
